<svg xmlns="http://www.w3.org/2000/svg" viewBox="0 0 146.83 146.83"><defs><style>.cls-1,.cls-4{fill:#fff;}.cls-2,.cls-3{fill:none;}.cls-2{stroke:#fff;stroke-width:10px;}.cls-2,.cls-3,.cls-4{stroke-miterlimit:10;}.cls-3,.cls-4{stroke:#333;}.cls-3{stroke-width:12px;}.cls-4{stroke-width:2px;}</style></defs><g id="Layer_2" data-name="Layer 2"><g id="Layer_1-2" data-name="Layer 1"><rect class="cls-1" width="146.83" height="146.83" rx="24.59"/><path class="cls-2" d="M112.33,97.65A40.81,40.81,0,1,1,97.74,41.8"/><path class="cls-3" d="M76.15,116.25A42.82,42.82,0,1,1,97.86,36.47a2,2,0,1,1-2,3.45A38.82,38.82,0,1,0,109.72,93a2,2,0,0,1,3.45,2,42.54,42.54,0,0,1-26.12,19.79A43.25,43.25,0,0,1,76.15,116.25Z"/><circle class="cls-4" cx="110.33" cy="96.06" r="5.45"/><circle class="cls-4" cx="96.46" cy="38.2" r="5.45"/><path class="cls-1" d="M76.15,116.25A42.82,42.82,0,1,1,97.86,36.47a2,2,0,1,1-2,3.45A38.82,38.82,0,1,0,109.72,93a2,2,0,0,1,3.45,2,42.54,42.54,0,0,1-26.12,19.79A43.25,43.25,0,0,1,76.15,116.25Z"/></g></g></svg>